<mxfile host="app.diagrams.net" modified="2023-10-14T16:44:15.794Z" agent="Mozilla/5.0 (Macintosh; Intel Mac OS X 10_15_7) AppleWebKit/537.36 (KHTML, like Gecko) Chrome/117.0.0.0 Safari/537.36 Edg/117.0.2045.40" etag="NenhetkipdAEH7DlZeaj" version="21.6.9" type="github">
  <diagram name="Page-1" id="9361dd3d-8414-5efd-6122-117bd74ce7a7">
    <mxGraphModel dx="1210" dy="733" grid="1" gridSize="10" guides="1" tooltips="1" connect="1" arrows="1" fold="1" page="0" pageScale="1.5" pageWidth="826" pageHeight="1169" background="none" math="0" shadow="0">
      <root>
        <mxCell id="0" />
        <mxCell id="1" parent="0" />
        <mxCell id="AVoK2ExAnDHO-cNXDVnt-89" value="app后端" style="shape=umlLifeline;perimeter=lifelinePerimeter;whiteSpace=wrap;html=1;container=1;dropTarget=0;collapsible=0;recursiveResize=0;outlineConnect=0;portConstraint=eastwest;newEdgeStyle={&quot;edgeStyle&quot;:&quot;elbowEdgeStyle&quot;,&quot;elbow&quot;:&quot;vertical&quot;,&quot;curved&quot;:0,&quot;rounded&quot;:0};labelBackgroundColor=none;fillColor=#B2C9AB;strokeColor=#788AA3;fontColor=#46495D;" vertex="1" parent="1">
          <mxGeometry x="320" y="150" width="100" height="300" as="geometry" />
        </mxCell>
        <mxCell id="AVoK2ExAnDHO-cNXDVnt-100" value="" style="html=1;points=[];perimeter=orthogonalPerimeter;outlineConnect=0;targetShapes=umlLifeline;portConstraint=eastwest;newEdgeStyle={&quot;edgeStyle&quot;:&quot;elbowEdgeStyle&quot;,&quot;elbow&quot;:&quot;vertical&quot;,&quot;curved&quot;:0,&quot;rounded&quot;:0};labelBackgroundColor=none;fillColor=#B2C9AB;strokeColor=#788AA3;fontColor=#46495D;" vertex="1" parent="AVoK2ExAnDHO-cNXDVnt-89">
          <mxGeometry x="45" y="70" width="10" height="80" as="geometry" />
        </mxCell>
        <mxCell id="AVoK2ExAnDHO-cNXDVnt-111" value="" style="html=1;points=[];perimeter=orthogonalPerimeter;outlineConnect=0;targetShapes=umlLifeline;portConstraint=eastwest;newEdgeStyle={&quot;edgeStyle&quot;:&quot;elbowEdgeStyle&quot;,&quot;elbow&quot;:&quot;vertical&quot;,&quot;curved&quot;:0,&quot;rounded&quot;:0};strokeColor=#788AA3;fontColor=#46495D;fillColor=#B2C9AB;" vertex="1" parent="AVoK2ExAnDHO-cNXDVnt-89">
          <mxGeometry x="45" y="210" width="10" height="80" as="geometry" />
        </mxCell>
        <mxCell id="AVoK2ExAnDHO-cNXDVnt-90" value="信息流系统" style="shape=umlLifeline;perimeter=lifelinePerimeter;whiteSpace=wrap;html=1;container=1;dropTarget=0;collapsible=0;recursiveResize=0;outlineConnect=0;portConstraint=eastwest;newEdgeStyle={&quot;edgeStyle&quot;:&quot;elbowEdgeStyle&quot;,&quot;elbow&quot;:&quot;vertical&quot;,&quot;curved&quot;:0,&quot;rounded&quot;:0};labelBackgroundColor=none;fillColor=#B2C9AB;strokeColor=#788AA3;fontColor=#46495D;" vertex="1" parent="1">
          <mxGeometry x="651" y="150" width="100" height="1010" as="geometry" />
        </mxCell>
        <mxCell id="AVoK2ExAnDHO-cNXDVnt-95" value="归因逻辑" style="html=1;points=[];perimeter=orthogonalPerimeter;outlineConnect=0;targetShapes=umlLifeline;portConstraint=eastwest;newEdgeStyle={&quot;edgeStyle&quot;:&quot;elbowEdgeStyle&quot;,&quot;elbow&quot;:&quot;vertical&quot;,&quot;curved&quot;:0,&quot;rounded&quot;:0};flipV=1;labelBackgroundColor=none;fillColor=#B2C9AB;strokeColor=#788AA3;fontColor=#46495D;horizontal=0;" vertex="1" parent="AVoK2ExAnDHO-cNXDVnt-90">
          <mxGeometry x="45" y="70" width="10" height="80" as="geometry" />
        </mxCell>
        <mxCell id="AVoK2ExAnDHO-cNXDVnt-96" value="启动/登录" style="html=1;verticalAlign=bottom;endArrow=block;edgeStyle=elbowEdgeStyle;elbow=horizontal;curved=0;rounded=0;labelBackgroundColor=none;strokeColor=#788AA3;fontColor=default;" edge="1" target="AVoK2ExAnDHO-cNXDVnt-95" parent="AVoK2ExAnDHO-cNXDVnt-90">
          <mxGeometry x="0.0042" relative="1" as="geometry">
            <mxPoint x="-25" y="80" as="sourcePoint" />
            <Array as="points">
              <mxPoint x="-271" y="80" />
            </Array>
            <mxPoint as="offset" />
          </mxGeometry>
        </mxCell>
        <mxCell id="AVoK2ExAnDHO-cNXDVnt-104" value="归因结果计算存储&lt;br&gt;依赖风控、ads、信贷系统等系统的数据" style="html=1;align=left;spacingLeft=2;endArrow=block;rounded=0;edgeStyle=orthogonalEdgeStyle;curved=0;rounded=0;labelBackgroundColor=none;strokeColor=#788AA3;fontColor=default;" edge="1" target="AVoK2ExAnDHO-cNXDVnt-95" parent="AVoK2ExAnDHO-cNXDVnt-90" source="AVoK2ExAnDHO-cNXDVnt-95">
          <mxGeometry relative="1" as="geometry">
            <mxPoint x="59" y="90" as="sourcePoint" />
            <Array as="points">
              <mxPoint x="89" y="90" />
              <mxPoint x="89" y="140" />
            </Array>
            <mxPoint x="64" y="119.99999999999989" as="targetPoint" />
            <mxPoint as="offset" />
          </mxGeometry>
        </mxCell>
        <mxCell id="AVoK2ExAnDHO-cNXDVnt-117" value="" style="html=1;points=[];perimeter=orthogonalPerimeter;outlineConnect=0;targetShapes=umlLifeline;portConstraint=eastwest;newEdgeStyle={&quot;edgeStyle&quot;:&quot;elbowEdgeStyle&quot;,&quot;elbow&quot;:&quot;vertical&quot;,&quot;curved&quot;:0,&quot;rounded&quot;:0};strokeColor=#788AA3;fontColor=#46495D;fillColor=#B2C9AB;" vertex="1" parent="AVoK2ExAnDHO-cNXDVnt-90">
          <mxGeometry x="45" y="240" width="10" height="450" as="geometry" />
        </mxCell>
        <mxCell id="AVoK2ExAnDHO-cNXDVnt-122" value="配置数据读取" style="html=1;align=left;spacingLeft=2;endArrow=block;rounded=0;edgeStyle=orthogonalEdgeStyle;curved=0;rounded=0;labelBackgroundColor=none;strokeColor=#788AA3;fontColor=default;" edge="1" parent="AVoK2ExAnDHO-cNXDVnt-90" source="AVoK2ExAnDHO-cNXDVnt-117" target="AVoK2ExAnDHO-cNXDVnt-117">
          <mxGeometry relative="1" as="geometry">
            <mxPoint x="59" y="270" as="sourcePoint" />
            <Array as="points">
              <mxPoint x="93" y="270" />
              <mxPoint x="93" y="320" />
            </Array>
            <mxPoint x="59" y="320" as="targetPoint" />
            <mxPoint as="offset" />
          </mxGeometry>
        </mxCell>
        <mxCell id="AVoK2ExAnDHO-cNXDVnt-139" value="记录上报结果数据" style="html=1;align=left;spacingLeft=2;endArrow=block;rounded=0;edgeStyle=orthogonalEdgeStyle;curved=0;rounded=0;labelBackgroundColor=none;strokeColor=#788AA3;fontColor=default;" edge="1" parent="AVoK2ExAnDHO-cNXDVnt-90" source="AVoK2ExAnDHO-cNXDVnt-117" target="AVoK2ExAnDHO-cNXDVnt-117">
          <mxGeometry relative="1" as="geometry">
            <mxPoint x="59" y="620" as="sourcePoint" />
            <Array as="points">
              <mxPoint x="97" y="620" />
              <mxPoint x="97" y="670" />
            </Array>
            <mxPoint x="59" y="670" as="targetPoint" />
            <mxPoint as="offset" />
          </mxGeometry>
        </mxCell>
        <mxCell id="AVoK2ExAnDHO-cNXDVnt-140" value="" style="html=1;points=[];perimeter=orthogonalPerimeter;outlineConnect=0;targetShapes=umlLifeline;portConstraint=eastwest;newEdgeStyle={&quot;edgeStyle&quot;:&quot;elbowEdgeStyle&quot;,&quot;elbow&quot;:&quot;vertical&quot;,&quot;curved&quot;:0,&quot;rounded&quot;:0};strokeColor=#788AA3;fontColor=#46495D;fillColor=#B2C9AB;" vertex="1" parent="AVoK2ExAnDHO-cNXDVnt-90">
          <mxGeometry x="45" y="750" width="10" height="140" as="geometry" />
        </mxCell>
        <mxCell id="AVoK2ExAnDHO-cNXDVnt-141" value="信息流平台间相互增量&lt;br&gt;逻辑处理、上报" style="html=1;align=left;spacingLeft=2;endArrow=block;rounded=0;edgeStyle=orthogonalEdgeStyle;curved=0;rounded=0;labelBackgroundColor=none;strokeColor=#788AA3;fontColor=default;" edge="1" parent="AVoK2ExAnDHO-cNXDVnt-90" source="AVoK2ExAnDHO-cNXDVnt-140" target="AVoK2ExAnDHO-cNXDVnt-140">
          <mxGeometry relative="1" as="geometry">
            <mxPoint x="59" y="790" as="sourcePoint" />
            <Array as="points">
              <mxPoint x="101" y="790" />
              <mxPoint x="101" y="840" />
            </Array>
            <mxPoint x="59" y="840" as="targetPoint" />
            <mxPoint as="offset" />
          </mxGeometry>
        </mxCell>
        <mxCell id="AVoK2ExAnDHO-cNXDVnt-148" value="" style="html=1;points=[];perimeter=orthogonalPerimeter;outlineConnect=0;targetShapes=umlLifeline;portConstraint=eastwest;newEdgeStyle={&quot;edgeStyle&quot;:&quot;elbowEdgeStyle&quot;,&quot;elbow&quot;:&quot;vertical&quot;,&quot;curved&quot;:0,&quot;rounded&quot;:0};strokeColor=#788AA3;fontColor=#46495D;fillColor=#B2C9AB;" vertex="1" parent="AVoK2ExAnDHO-cNXDVnt-90">
          <mxGeometry x="45" y="926" width="10" height="150" as="geometry" />
        </mxCell>
        <mxCell id="AVoK2ExAnDHO-cNXDVnt-91" value="信贷核心系统" style="shape=umlLifeline;perimeter=lifelinePerimeter;whiteSpace=wrap;html=1;container=1;dropTarget=0;collapsible=0;recursiveResize=0;outlineConnect=0;portConstraint=eastwest;newEdgeStyle={&quot;edgeStyle&quot;:&quot;elbowEdgeStyle&quot;,&quot;elbow&quot;:&quot;vertical&quot;,&quot;curved&quot;:0,&quot;rounded&quot;:0};labelBackgroundColor=none;fillColor=#B2C9AB;strokeColor=#788AA3;fontColor=#46495D;" vertex="1" parent="1">
          <mxGeometry x="483" y="150" width="100" height="500" as="geometry" />
        </mxCell>
        <mxCell id="AVoK2ExAnDHO-cNXDVnt-108" value="" style="html=1;points=[];perimeter=orthogonalPerimeter;outlineConnect=0;targetShapes=umlLifeline;portConstraint=eastwest;newEdgeStyle={&quot;edgeStyle&quot;:&quot;elbowEdgeStyle&quot;,&quot;elbow&quot;:&quot;vertical&quot;,&quot;curved&quot;:0,&quot;rounded&quot;:0};strokeColor=#788AA3;fontColor=#46495D;fillColor=#B2C9AB;" vertex="1" parent="AVoK2ExAnDHO-cNXDVnt-91">
          <mxGeometry x="45" y="110" width="10" height="80" as="geometry" />
        </mxCell>
        <mxCell id="AVoK2ExAnDHO-cNXDVnt-114" value="" style="html=1;points=[];perimeter=orthogonalPerimeter;outlineConnect=0;targetShapes=umlLifeline;portConstraint=eastwest;newEdgeStyle={&quot;edgeStyle&quot;:&quot;elbowEdgeStyle&quot;,&quot;elbow&quot;:&quot;vertical&quot;,&quot;curved&quot;:0,&quot;rounded&quot;:0};strokeColor=#788AA3;fontColor=#46495D;fillColor=#B2C9AB;" vertex="1" parent="AVoK2ExAnDHO-cNXDVnt-91">
          <mxGeometry x="45" y="220" width="10" height="80" as="geometry" />
        </mxCell>
        <mxCell id="AVoK2ExAnDHO-cNXDVnt-124" value="" style="html=1;points=[];perimeter=orthogonalPerimeter;outlineConnect=0;targetShapes=umlLifeline;portConstraint=eastwest;newEdgeStyle={&quot;edgeStyle&quot;:&quot;elbowEdgeStyle&quot;,&quot;elbow&quot;:&quot;vertical&quot;,&quot;curved&quot;:0,&quot;rounded&quot;:0};strokeColor=#788AA3;fontColor=#46495D;fillColor=#B2C9AB;" vertex="1" parent="AVoK2ExAnDHO-cNXDVnt-91">
          <mxGeometry x="45" y="380" width="10" height="80" as="geometry" />
        </mxCell>
        <mxCell id="AVoK2ExAnDHO-cNXDVnt-92" value="风控、ads系统" style="shape=umlLifeline;perimeter=lifelinePerimeter;whiteSpace=wrap;html=1;container=1;dropTarget=0;collapsible=0;recursiveResize=0;outlineConnect=0;portConstraint=eastwest;newEdgeStyle={&quot;edgeStyle&quot;:&quot;elbowEdgeStyle&quot;,&quot;elbow&quot;:&quot;vertical&quot;,&quot;curved&quot;:0,&quot;rounded&quot;:0};labelBackgroundColor=none;fillColor=#B2C9AB;strokeColor=#788AA3;fontColor=#46495D;" vertex="1" parent="1">
          <mxGeometry x="850" y="150" width="100" height="1000" as="geometry" />
        </mxCell>
        <mxCell id="AVoK2ExAnDHO-cNXDVnt-130" value="" style="html=1;points=[];perimeter=orthogonalPerimeter;outlineConnect=0;targetShapes=umlLifeline;portConstraint=eastwest;newEdgeStyle={&quot;edgeStyle&quot;:&quot;elbowEdgeStyle&quot;,&quot;elbow&quot;:&quot;vertical&quot;,&quot;curved&quot;:0,&quot;rounded&quot;:0};strokeColor=#788AA3;fontColor=#46495D;fillColor=#B2C9AB;" vertex="1" parent="AVoK2ExAnDHO-cNXDVnt-92">
          <mxGeometry x="45" y="440" width="10" height="80" as="geometry" />
        </mxCell>
        <mxCell id="AVoK2ExAnDHO-cNXDVnt-94" value="" style="shape=umlLifeline;perimeter=lifelinePerimeter;whiteSpace=wrap;html=1;container=1;dropTarget=0;collapsible=0;recursiveResize=0;outlineConnect=0;portConstraint=eastwest;newEdgeStyle={&quot;edgeStyle&quot;:&quot;elbowEdgeStyle&quot;,&quot;elbow&quot;:&quot;vertical&quot;,&quot;curved&quot;:0,&quot;rounded&quot;:0};participant=umlActor;labelBackgroundColor=none;fillColor=#B2C9AB;strokeColor=#788AA3;fontColor=#46495D;" vertex="1" parent="1">
          <mxGeometry x="220" y="150" width="20" height="300" as="geometry" />
        </mxCell>
        <mxCell id="AVoK2ExAnDHO-cNXDVnt-99" value="" style="html=1;points=[];perimeter=orthogonalPerimeter;outlineConnect=0;targetShapes=umlLifeline;portConstraint=eastwest;newEdgeStyle={&quot;edgeStyle&quot;:&quot;elbowEdgeStyle&quot;,&quot;elbow&quot;:&quot;vertical&quot;,&quot;curved&quot;:0,&quot;rounded&quot;:0};labelBackgroundColor=none;fillColor=#B2C9AB;strokeColor=#788AA3;fontColor=#46495D;" vertex="1" parent="AVoK2ExAnDHO-cNXDVnt-94">
          <mxGeometry x="5" y="70" width="10" height="80" as="geometry" />
        </mxCell>
        <mxCell id="AVoK2ExAnDHO-cNXDVnt-105" value="" style="html=1;points=[];perimeter=orthogonalPerimeter;outlineConnect=0;targetShapes=umlLifeline;portConstraint=eastwest;newEdgeStyle={&quot;edgeStyle&quot;:&quot;elbowEdgeStyle&quot;,&quot;elbow&quot;:&quot;vertical&quot;,&quot;curved&quot;:0,&quot;rounded&quot;:0};labelBackgroundColor=none;fillColor=#B2C9AB;strokeColor=#788AA3;fontColor=#46495D;" vertex="1" parent="AVoK2ExAnDHO-cNXDVnt-94">
          <mxGeometry x="5" y="210" width="10" height="80" as="geometry" />
        </mxCell>
        <mxCell id="AVoK2ExAnDHO-cNXDVnt-101" style="edgeStyle=elbowEdgeStyle;rounded=0;orthogonalLoop=1;jettySize=auto;html=1;elbow=vertical;curved=0;labelBackgroundColor=none;strokeColor=#788AA3;fontColor=default;" edge="1" parent="1" source="AVoK2ExAnDHO-cNXDVnt-99" target="AVoK2ExAnDHO-cNXDVnt-100">
          <mxGeometry relative="1" as="geometry">
            <Array as="points">
              <mxPoint x="300" y="230" />
            </Array>
          </mxGeometry>
        </mxCell>
        <mxCell id="AVoK2ExAnDHO-cNXDVnt-106" value="用户" style="text;html=1;align=center;verticalAlign=middle;resizable=0;points=[];autosize=1;strokeColor=none;fillColor=none;fontColor=#46495D;" vertex="1" parent="1">
          <mxGeometry x="205" y="120" width="50" height="30" as="geometry" />
        </mxCell>
        <mxCell id="AVoK2ExAnDHO-cNXDVnt-109" style="edgeStyle=elbowEdgeStyle;rounded=0;orthogonalLoop=1;jettySize=auto;html=1;elbow=vertical;curved=0;strokeColor=#788AA3;fontColor=#46495D;fillColor=#B2C9AB;" edge="1" parent="1" source="AVoK2ExAnDHO-cNXDVnt-108" target="AVoK2ExAnDHO-cNXDVnt-95">
          <mxGeometry relative="1" as="geometry" />
        </mxCell>
        <mxCell id="AVoK2ExAnDHO-cNXDVnt-110" value="api渠道授信" style="edgeLabel;html=1;align=center;verticalAlign=middle;resizable=0;points=[];fontColor=#46495D;" vertex="1" connectable="0" parent="AVoK2ExAnDHO-cNXDVnt-109">
          <mxGeometry x="-0.2184" relative="1" as="geometry">
            <mxPoint as="offset" />
          </mxGeometry>
        </mxCell>
        <mxCell id="AVoK2ExAnDHO-cNXDVnt-112" value="完件/授信" style="html=1;verticalAlign=bottom;endArrow=block;edgeStyle=elbowEdgeStyle;elbow=vertical;curved=0;rounded=0;strokeColor=#788AA3;fontColor=#46495D;fillColor=#B2C9AB;" edge="1" parent="1">
          <mxGeometry relative="1" as="geometry">
            <mxPoint x="235" y="370" as="sourcePoint" />
            <mxPoint x="365" y="370" as="targetPoint" />
          </mxGeometry>
        </mxCell>
        <mxCell id="AVoK2ExAnDHO-cNXDVnt-115" style="edgeStyle=elbowEdgeStyle;rounded=0;orthogonalLoop=1;jettySize=auto;html=1;elbow=vertical;curved=0;strokeColor=#788AA3;fontColor=#46495D;fillColor=#B2C9AB;" edge="1" parent="1" target="AVoK2ExAnDHO-cNXDVnt-114">
          <mxGeometry relative="1" as="geometry">
            <mxPoint x="375" y="390" as="sourcePoint" />
            <mxPoint x="530" y="390" as="targetPoint" />
          </mxGeometry>
        </mxCell>
        <mxCell id="AVoK2ExAnDHO-cNXDVnt-116" value="完件/授信" style="edgeLabel;html=1;align=center;verticalAlign=middle;resizable=0;points=[];fontColor=#46495D;" vertex="1" connectable="0" parent="AVoK2ExAnDHO-cNXDVnt-115">
          <mxGeometry x="0.5968" y="-1" relative="1" as="geometry">
            <mxPoint x="-50" as="offset" />
          </mxGeometry>
        </mxCell>
        <mxCell id="AVoK2ExAnDHO-cNXDVnt-120" value="广告平台" style="shape=umlLifeline;perimeter=lifelinePerimeter;whiteSpace=wrap;html=1;container=1;dropTarget=0;collapsible=0;recursiveResize=0;outlineConnect=0;portConstraint=eastwest;newEdgeStyle={&quot;edgeStyle&quot;:&quot;elbowEdgeStyle&quot;,&quot;elbow&quot;:&quot;vertical&quot;,&quot;curved&quot;:0,&quot;rounded&quot;:0};strokeColor=#788AA3;fontColor=#46495D;fillColor=#B2C9AB;" vertex="1" parent="1">
          <mxGeometry x="1020" y="150" width="100" height="1000" as="geometry" />
        </mxCell>
        <mxCell id="AVoK2ExAnDHO-cNXDVnt-135" value="" style="html=1;points=[];perimeter=orthogonalPerimeter;outlineConnect=0;targetShapes=umlLifeline;portConstraint=eastwest;newEdgeStyle={&quot;edgeStyle&quot;:&quot;elbowEdgeStyle&quot;,&quot;elbow&quot;:&quot;vertical&quot;,&quot;curved&quot;:0,&quot;rounded&quot;:0};strokeColor=#788AA3;fontColor=#46495D;fillColor=#B2C9AB;" vertex="1" parent="AVoK2ExAnDHO-cNXDVnt-120">
          <mxGeometry x="45" y="550.13" width="10" height="80" as="geometry" />
        </mxCell>
        <mxCell id="AVoK2ExAnDHO-cNXDVnt-145" value="" style="html=1;points=[];perimeter=orthogonalPerimeter;outlineConnect=0;targetShapes=umlLifeline;portConstraint=eastwest;newEdgeStyle={&quot;edgeStyle&quot;:&quot;elbowEdgeStyle&quot;,&quot;elbow&quot;:&quot;vertical&quot;,&quot;curved&quot;:0,&quot;rounded&quot;:0};strokeColor=#788AA3;fontColor=#46495D;fillColor=#B2C9AB;" vertex="1" parent="AVoK2ExAnDHO-cNXDVnt-120">
          <mxGeometry x="45" y="920" width="10" height="80" as="geometry" />
        </mxCell>
        <mxCell id="AVoK2ExAnDHO-cNXDVnt-118" value="" style="html=1;verticalAlign=bottom;endArrow=block;edgeStyle=elbowEdgeStyle;elbow=vertical;curved=0;rounded=0;strokeColor=#788AA3;fontColor=#46495D;fillColor=#B2C9AB;" edge="1" parent="1">
          <mxGeometry x="-0.0886" y="10" relative="1" as="geometry">
            <mxPoint x="538" y="410" as="sourcePoint" />
            <mxPoint x="696" y="410" as="targetPoint" />
            <mxPoint as="offset" />
          </mxGeometry>
        </mxCell>
        <mxCell id="AVoK2ExAnDHO-cNXDVnt-121" value="请求上报" style="edgeLabel;html=1;align=center;verticalAlign=middle;resizable=0;points=[];fontColor=#46495D;" vertex="1" connectable="0" parent="AVoK2ExAnDHO-cNXDVnt-118">
          <mxGeometry x="0.2975" relative="1" as="geometry">
            <mxPoint x="-20" as="offset" />
          </mxGeometry>
        </mxCell>
        <mxCell id="AVoK2ExAnDHO-cNXDVnt-123" value="策略引擎规则计算" style="html=1;align=left;spacingLeft=2;endArrow=block;rounded=0;edgeStyle=orthogonalEdgeStyle;curved=0;rounded=0;labelBackgroundColor=none;strokeColor=#788AA3;fontColor=default;" edge="1" parent="1">
          <mxGeometry relative="1" as="geometry">
            <mxPoint x="706" y="500" as="sourcePoint" />
            <Array as="points">
              <mxPoint x="744" y="500" />
              <mxPoint x="744" y="550" />
            </Array>
            <mxPoint x="706" y="550" as="targetPoint" />
            <mxPoint as="offset" />
          </mxGeometry>
        </mxCell>
        <mxCell id="AVoK2ExAnDHO-cNXDVnt-125" value="信贷数据请求" style="html=1;verticalAlign=bottom;endArrow=block;edgeStyle=elbowEdgeStyle;elbow=vertical;curved=0;rounded=0;strokeColor=#788AA3;fontColor=#46495D;fillColor=#B2C9AB;" edge="1" target="AVoK2ExAnDHO-cNXDVnt-124" parent="1" source="AVoK2ExAnDHO-cNXDVnt-117">
          <mxGeometry relative="1" as="geometry">
            <mxPoint x="608" y="530" as="sourcePoint" />
            <Array as="points">
              <mxPoint x="617" y="540" />
            </Array>
          </mxGeometry>
        </mxCell>
        <mxCell id="AVoK2ExAnDHO-cNXDVnt-128" value="" style="html=1;verticalAlign=bottom;endArrow=block;edgeStyle=elbowEdgeStyle;elbow=vertical;curved=0;rounded=0;strokeColor=#788AA3;fontColor=#46495D;fillColor=#B2C9AB;" edge="1" parent="1" source="AVoK2ExAnDHO-cNXDVnt-124" target="AVoK2ExAnDHO-cNXDVnt-117">
          <mxGeometry x="-0.0886" y="10" relative="1" as="geometry">
            <mxPoint x="540" y="580" as="sourcePoint" />
            <mxPoint x="698" y="580" as="targetPoint" />
            <mxPoint as="offset" />
          </mxGeometry>
        </mxCell>
        <mxCell id="AVoK2ExAnDHO-cNXDVnt-129" value="返回信贷额度等数据" style="edgeLabel;html=1;align=center;verticalAlign=middle;resizable=0;points=[];fontColor=#46495D;" vertex="1" connectable="0" parent="AVoK2ExAnDHO-cNXDVnt-128">
          <mxGeometry x="0.2975" relative="1" as="geometry">
            <mxPoint x="-20" as="offset" />
          </mxGeometry>
        </mxCell>
        <mxCell id="AVoK2ExAnDHO-cNXDVnt-131" value="请求策略引擎需要的&lt;br&gt;风控因子数据" style="html=1;verticalAlign=bottom;endArrow=block;edgeStyle=elbowEdgeStyle;elbow=vertical;curved=0;rounded=0;strokeColor=#788AA3;fontColor=#46495D;fillColor=#B2C9AB;" edge="1" target="AVoK2ExAnDHO-cNXDVnt-130" parent="1" source="AVoK2ExAnDHO-cNXDVnt-117">
          <mxGeometry relative="1" as="geometry">
            <mxPoint x="825" y="590" as="sourcePoint" />
            <Array as="points">
              <mxPoint x="801" y="610" />
            </Array>
          </mxGeometry>
        </mxCell>
        <mxCell id="AVoK2ExAnDHO-cNXDVnt-133" value="" style="html=1;verticalAlign=bottom;endArrow=block;edgeStyle=elbowEdgeStyle;elbow=vertical;curved=0;rounded=0;strokeColor=#788AA3;fontColor=#46495D;fillColor=#B2C9AB;" edge="1" parent="1" source="AVoK2ExAnDHO-cNXDVnt-130" target="AVoK2ExAnDHO-cNXDVnt-117">
          <mxGeometry relative="1" as="geometry">
            <mxPoint x="868" y="649.38" as="sourcePoint" />
            <mxPoint x="710" y="649.38" as="targetPoint" />
            <Array as="points">
              <mxPoint x="790" y="650" />
            </Array>
          </mxGeometry>
        </mxCell>
        <mxCell id="AVoK2ExAnDHO-cNXDVnt-134" value="返回风控数据" style="edgeLabel;html=1;align=center;verticalAlign=middle;resizable=0;points=[];fontColor=#46495D;" vertex="1" connectable="0" parent="AVoK2ExAnDHO-cNXDVnt-133">
          <mxGeometry x="-0.0517" y="-1" relative="1" as="geometry">
            <mxPoint as="offset" />
          </mxGeometry>
        </mxCell>
        <mxCell id="AVoK2ExAnDHO-cNXDVnt-136" value="" style="html=1;verticalAlign=bottom;endArrow=block;edgeStyle=elbowEdgeStyle;elbow=vertical;curved=0;rounded=0;strokeColor=#788AA3;fontColor=#46495D;fillColor=#B2C9AB;" edge="1" parent="1" source="AVoK2ExAnDHO-cNXDVnt-117">
          <mxGeometry relative="1" as="geometry">
            <mxPoint x="710" y="710" as="sourcePoint" />
            <mxPoint x="1065" y="710.0000000000001" as="targetPoint" />
          </mxGeometry>
        </mxCell>
        <mxCell id="AVoK2ExAnDHO-cNXDVnt-138" value="请求上报" style="edgeLabel;html=1;align=center;verticalAlign=middle;resizable=0;points=[];fontColor=#46495D;" vertex="1" connectable="0" parent="AVoK2ExAnDHO-cNXDVnt-136">
          <mxGeometry x="-0.6155" relative="1" as="geometry">
            <mxPoint as="offset" />
          </mxGeometry>
        </mxCell>
        <mxCell id="AVoK2ExAnDHO-cNXDVnt-137" value="返回上报结果" style="html=1;verticalAlign=bottom;endArrow=open;dashed=1;endSize=8;edgeStyle=elbowEdgeStyle;elbow=vertical;curved=0;rounded=0;strokeColor=#788AA3;fontColor=#46495D;fillColor=#B2C9AB;" edge="1" parent="1">
          <mxGeometry relative="1" as="geometry">
            <mxPoint x="706" y="749.7482051282051" as="targetPoint" />
            <mxPoint x="1065" y="749.7482051282051" as="sourcePoint" />
          </mxGeometry>
        </mxCell>
        <mxCell id="AVoK2ExAnDHO-cNXDVnt-146" value="" style="html=1;verticalAlign=bottom;endArrow=block;edgeStyle=elbowEdgeStyle;elbow=vertical;curved=0;rounded=0;strokeColor=#788AA3;fontColor=#46495D;fillColor=#B2C9AB;" edge="1" target="AVoK2ExAnDHO-cNXDVnt-145" parent="1" source="AVoK2ExAnDHO-cNXDVnt-148">
          <mxGeometry x="0.0006" relative="1" as="geometry">
            <mxPoint x="995" y="1070" as="sourcePoint" />
            <Array as="points">
              <mxPoint x="910" y="1080" />
            </Array>
            <mxPoint as="offset" />
          </mxGeometry>
        </mxCell>
        <mxCell id="AVoK2ExAnDHO-cNXDVnt-149" value="广告消耗报表数据" style="edgeLabel;html=1;align=center;verticalAlign=middle;resizable=0;points=[];fontColor=#46495D;" vertex="1" connectable="0" parent="AVoK2ExAnDHO-cNXDVnt-146">
          <mxGeometry x="-0.2584" y="2" relative="1" as="geometry">
            <mxPoint as="offset" />
          </mxGeometry>
        </mxCell>
        <mxCell id="AVoK2ExAnDHO-cNXDVnt-147" value="" style="html=1;verticalAlign=bottom;endArrow=open;dashed=1;endSize=8;edgeStyle=elbowEdgeStyle;elbow=vertical;curved=0;rounded=0;strokeColor=#788AA3;fontColor=#46495D;fillColor=#B2C9AB;" edge="1" source="AVoK2ExAnDHO-cNXDVnt-145" parent="1">
          <mxGeometry relative="1" as="geometry">
            <mxPoint x="710" y="1130" as="targetPoint" />
            <Array as="points">
              <mxPoint x="910" y="1130" />
            </Array>
          </mxGeometry>
        </mxCell>
        <mxCell id="AVoK2ExAnDHO-cNXDVnt-150" value="分时、分维度消耗报表数据" style="edgeLabel;html=1;align=center;verticalAlign=middle;resizable=0;points=[];fontColor=#46495D;" vertex="1" connectable="0" parent="AVoK2ExAnDHO-cNXDVnt-147">
          <mxGeometry x="0.283" relative="1" as="geometry">
            <mxPoint as="offset" />
          </mxGeometry>
        </mxCell>
        <mxCell id="AVoK2ExAnDHO-cNXDVnt-151" value="报表数据落库" style="html=1;align=left;spacingLeft=2;endArrow=block;rounded=0;edgeStyle=orthogonalEdgeStyle;curved=0;rounded=0;labelBackgroundColor=none;strokeColor=#788AA3;fontColor=default;" edge="1" parent="1">
          <mxGeometry relative="1" as="geometry">
            <mxPoint x="705" y="1160" as="sourcePoint" />
            <Array as="points">
              <mxPoint x="751" y="1160" />
              <mxPoint x="751" y="1210" />
            </Array>
            <mxPoint x="705" y="1210" as="targetPoint" />
            <mxPoint as="offset" />
          </mxGeometry>
        </mxCell>
      </root>
    </mxGraphModel>
  </diagram>
</mxfile>
